# xmcd
#
# Track frame offsets: 
#        150
#        5825
#        10712
#        36480
#        68647
#        94710
#        124527
#        132525
#        142630
#        161200
#        176660
#        204845
#        233915
#        262615
#        267837
#
# Disc length: 3998 seconds
#
# Revision: 5
# Processed by: cddbd v1.5.2PL0 Copyright (c) Steve Scherf et al.
# Submitted via: ExactAudioCopy v1.3
#
DISCID=c20f9c0f
DTITLE=鷺巣 詩郎_Shiro SAGISU - SHIRO'S SONGBOOK
DYEAR=1999
DGENRE=Gospel
TTITLE0=feat. "FREEDOM" Gospel Choir - Sing a Songbook
TTITLE1=feat. Ian PITTER - Just Wanna Thank You (reprise)
TTITLE2=feat. Elisha LA' VERNE - Intimate '99
TTITLE3=feat. Gina FOSTER - Carnival
TTITLE4=feat. Hazel FERNANDES - Eye To Eye
TTITLE5=feat. Hazel FERNANDES - Beautiful Dream
TTITLE6=Thanatos - if i can't be yours_ part 1: piano and verse
TTITLE7=Thanatos - if i can't be yours_ part 2: orchestral world
TTITLE8=Thanatos - if i can't be yours_ part 3: funk and go
TTITLE9=Thanatos - if i can't be yours_ part 4: overcome
TTITLE10=feat. LOREN and "FREEDOM" Gospel Choir - Love Calling
TTITLE11=feat. Ian PITTER - Just Wanna Thank You (master)
TTITLE12=feat. LOREN and MALI - Winter Blue
TTITLE13=feat. Warsaw Philharmonic Orchestra - Songbook
TTITLE14=feat. Jennifer INGRAM-BROWN - Stuck On Me
EXTD=ID3G: 38
EXTT0=
EXTT1=
EXTT2=
EXTT3=
EXTT4=
EXTT5=
EXTT6=
EXTT7=
EXTT8=
EXTT9=
EXTT10=
EXTT11=
EXTT12=
EXTT13=
EXTT14=
PLAYORDER=
